<?xml version="1.0" encoding="UTF-8" standalone="no"?>
<!DOCTYPE svg PUBLIC "-//W3C//DTD SVG 1.1//EN"
 "http://www.w3.org/Graphics/SVG/1.1/DTD/svg11.dtd">
<!-- Generated by graphviz version 2.40.1 (20161225.0304)
 -->
<!-- Title: dependencies Pages: 1 -->
<svg width="3286pt" height="284pt"
 viewBox="0.00 0.00 3286.00 284.00" xmlns="http://www.w3.org/2000/svg" xmlns:xlink="http://www.w3.org/1999/xlink">
<g id="graph0" class="graph" transform="scale(1 1) rotate(0) translate(4 280)">
<title>dependencies</title>
<polygon fill="#ffffff" stroke="transparent" points="-4,4 -4,-280 3282,-280 3282,4 -4,4"/>
<text text-anchor="start" x="1618.0091" y="-42.4" font-family="sans-serif" font-weight="bold" font-size="14.00" fill="#000000">Legend</text>
<polygon fill="#ffffb3" stroke="transparent" points="1405,-10 1405,-30 1425,-30 1425,-10 1405,-10"/>
<text text-anchor="start" x="1428.629" y="-15.4" font-family="sans-serif" font-size="14.00" fill="#000000"> &#160;Declarations</text>
<polygon fill="#8dd3c7" stroke="transparent" points="1518,-10 1518,-30 1538,-30 1538,-10 1518,-10"/>
<text text-anchor="start" x="1541.7251" y="-15.4" font-family="sans-serif" font-size="14.00" fill="#000000"> &#160;Module</text>
<polygon fill="#80b1d3" stroke="transparent" points="1604,-10 1604,-30 1624,-30 1624,-10 1604,-10"/>
<text text-anchor="start" x="1627.7812" y="-15.4" font-family="sans-serif" font-size="14.00" fill="#000000"> &#160;Bootstrap</text>
<polygon fill="#fdb462" stroke="transparent" points="1701,-10 1701,-30 1721,-30 1721,-10 1701,-10"/>
<text text-anchor="start" x="1724.6732" y="-15.4" font-family="sans-serif" font-size="14.00" fill="#000000"> &#160;Providers</text>
<polygon fill="#fb8072" stroke="transparent" points="1797,-10 1797,-30 1817,-30 1817,-10 1797,-10"/>
<text text-anchor="start" x="1820.7258" y="-15.4" font-family="sans-serif" font-size="14.00" fill="#000000"> &#160;Exports</text>
<g id="clust1" class="cluster">
<title>cluster_AppModule</title>
<polygon fill="none" stroke="#000000" stroke-dasharray="1,5" points="8,-70 8,-268 3270,-268 3270,-70 8,-70"/>
</g>
<g id="clust2" class="cluster">
<title>cluster_AppModule_declarations</title>
<polygon fill="none" stroke="#000000" points="168,-78 168,-130 3262,-130 3262,-78 168,-78"/>
</g>
<g id="clust23" class="cluster">
<title>cluster_AppModule_imports</title>
<polygon fill="none" stroke="#000000" points="16,-78 16,-130 160,-130 160,-78 16,-78"/>
</g>
<g id="clust25" class="cluster">
<title>cluster_AppModule_bootstrap</title>
<polygon fill="none" stroke="#000000" points="1628,-208 1628,-260 1752,-260 1752,-208 1628,-208"/>
</g>
<!-- AppComponent -->
<g id="node1" class="node">
<title>AppComponent</title>
<polygon fill="#ffffb3" stroke="#000000" points="3253.9399,-122 3148.0601,-122 3148.0601,-86 3253.9399,-86 3253.9399,-122"/>
<text text-anchor="middle" x="3201" y="-99.8" font-family="Times,serif" font-size="14.00" fill="#000000">AppComponent</text>
</g>
<!-- AppModule -->
<g id="node21" class="node">
<title>AppModule</title>
<polygon fill="#8dd3c7" stroke="#000000" points="1731.6571,-187 1728.6571,-191 1707.6571,-191 1704.6571,-187 1648.3429,-187 1648.3429,-151 1731.6571,-151 1731.6571,-187"/>
<text text-anchor="middle" x="1690" y="-164.8" font-family="Times,serif" font-size="14.00" fill="#000000">AppModule</text>
</g>
<!-- AppComponent&#45;&gt;AppModule -->
<g id="edge1" class="edge">
<title>AppComponent&#45;&gt;AppModule</title>
<path fill="none" stroke="#000000" d="M3201,-122.1532C3201,-145.7566 3201,-184 3201,-184 3201,-184 1741.9898,-184 1741.9898,-184"/>
<polygon fill="#000000" stroke="#000000" points="1741.9899,-180.5001 1731.9898,-184 1741.9898,-187.5001 1741.9899,-180.5001"/>
</g>
<!-- AsignComponent -->
<g id="node2" class="node">
<title>AsignComponent</title>
<polygon fill="#ffffb3" stroke="#000000" points="3130.2744,-122 3015.7256,-122 3015.7256,-86 3130.2744,-86 3130.2744,-122"/>
<text text-anchor="middle" x="3073" y="-99.8" font-family="Times,serif" font-size="14.00" fill="#000000">AsignComponent</text>
</g>
<!-- AsignComponent&#45;&gt;AppModule -->
<g id="edge2" class="edge">
<title>AsignComponent&#45;&gt;AppModule</title>
<path fill="none" stroke="#000000" d="M3073,-122.2479C3073,-145.0179 3073,-181 3073,-181 3073,-181 1741.7672,-181 1741.7672,-181"/>
<polygon fill="#000000" stroke="#000000" points="1741.7673,-177.5001 1731.7672,-181 1741.7672,-184.5001 1741.7673,-177.5001"/>
</g>
<!-- AssignedProjectsComponent -->
<g id="node3" class="node">
<title>AssignedProjectsComponent</title>
<polygon fill="#ffffb3" stroke="#000000" points="2997.0322,-122 2818.9678,-122 2818.9678,-86 2997.0322,-86 2997.0322,-122"/>
<text text-anchor="middle" x="2908" y="-99.8" font-family="Times,serif" font-size="14.00" fill="#000000">AssignedProjectsComponent</text>
</g>
<!-- AssignedProjectsComponent&#45;&gt;AppModule -->
<g id="edge3" class="edge">
<title>AssignedProjectsComponent&#45;&gt;AppModule</title>
<path fill="none" stroke="#000000" d="M2908,-122.2921C2908,-144.2057 2908,-178 2908,-178 2908,-178 1741.9263,-178 1741.9263,-178"/>
<polygon fill="#000000" stroke="#000000" points="1741.9264,-174.5001 1731.9263,-178 1741.9263,-181.5001 1741.9264,-174.5001"/>
</g>
<!-- BinnacleComponent -->
<g id="node4" class="node">
<title>BinnacleComponent</title>
<polygon fill="#ffffb3" stroke="#000000" points="2800.594,-122 2669.406,-122 2669.406,-86 2800.594,-86 2800.594,-122"/>
<text text-anchor="middle" x="2735" y="-99.8" font-family="Times,serif" font-size="14.00" fill="#000000">BinnacleComponent</text>
</g>
<!-- BinnacleComponent&#45;&gt;AppModule -->
<g id="edge4" class="edge">
<title>BinnacleComponent&#45;&gt;AppModule</title>
<path fill="none" stroke="#000000" d="M2735,-122.0267C2735,-142.7672 2735,-174 2735,-174 2735,-174 1741.9342,-174 1741.9342,-174"/>
<polygon fill="#000000" stroke="#000000" points="1741.9343,-170.5001 1731.9342,-174 1741.9342,-177.5001 1741.9343,-170.5001"/>
</g>
<!-- CompletedComponent -->
<g id="node5" class="node">
<title>CompletedComponent</title>
<polygon fill="#ffffb3" stroke="#000000" points="2651.2702,-122 2508.7298,-122 2508.7298,-86 2651.2702,-86 2651.2702,-122"/>
<text text-anchor="middle" x="2580" y="-99.8" font-family="Times,serif" font-size="14.00" fill="#000000">CompletedComponent</text>
</g>
<!-- CompletedComponent&#45;&gt;AppModule -->
<g id="edge5" class="edge">
<title>CompletedComponent&#45;&gt;AppModule</title>
<path fill="none" stroke="#000000" d="M2580,-122.308C2580,-142.1455 2580,-171 2580,-171 2580,-171 1741.7328,-171 1741.7328,-171"/>
<polygon fill="#000000" stroke="#000000" points="1741.7329,-167.5001 1731.7328,-171 1741.7328,-174.5001 1741.7329,-167.5001"/>
</g>
<!-- CreateProjectComponent -->
<g id="node6" class="node">
<title>CreateProjectComponent</title>
<polygon fill="#ffffb3" stroke="#000000" points="2490.5183,-122 2333.4817,-122 2333.4817,-86 2490.5183,-86 2490.5183,-122"/>
<text text-anchor="middle" x="2412" y="-99.8" font-family="Times,serif" font-size="14.00" fill="#000000">CreateProjectComponent</text>
</g>
<!-- CreateProjectComponent&#45;&gt;AppModule -->
<g id="edge6" class="edge">
<title>CreateProjectComponent&#45;&gt;AppModule</title>
<path fill="none" stroke="#000000" d="M2412,-122.1686C2412,-141.0898 2412,-168 2412,-168 2412,-168 1741.6744,-168 1741.6744,-168"/>
<polygon fill="#000000" stroke="#000000" points="1741.6745,-164.5001 1731.6744,-168 1741.6744,-171.5001 1741.6745,-164.5001"/>
</g>
<!-- DocumentsComponent -->
<g id="node7" class="node">
<title>DocumentsComponent</title>
<polygon fill="#ffffb3" stroke="#000000" points="2315.594,-122 2170.406,-122 2170.406,-86 2315.594,-86 2315.594,-122"/>
<text text-anchor="middle" x="2243" y="-99.8" font-family="Times,serif" font-size="14.00" fill="#000000">DocumentsComponent</text>
</g>
<!-- DocumentsComponent&#45;&gt;AppModule -->
<g id="edge7" class="edge">
<title>DocumentsComponent&#45;&gt;AppModule</title>
<path fill="none" stroke="#000000" d="M2243,-122.302C2243,-140.2699 2243,-165 2243,-165 2243,-165 1742.0188,-165 1742.0188,-165"/>
<polygon fill="#000000" stroke="#000000" points="1742.0188,-161.5001 1732.0188,-165 1742.0187,-168.5001 1742.0188,-161.5001"/>
</g>
<!-- HomeComponent -->
<g id="node8" class="node">
<title>HomeComponent</title>
<polygon fill="#ffffb3" stroke="#000000" points="2152.5451,-122 2037.4549,-122 2037.4549,-86 2152.5451,-86 2152.5451,-122"/>
<text text-anchor="middle" x="2095" y="-99.8" font-family="Times,serif" font-size="14.00" fill="#000000">HomeComponent</text>
</g>
<!-- HomeComponent&#45;&gt;AppModule -->
<g id="edge8" class="edge">
<title>HomeComponent&#45;&gt;AppModule</title>
<path fill="none" stroke="#000000" d="M2095,-122.0352C2095,-138.7344 2095,-161 2095,-161 2095,-161 1741.8167,-161 1741.8167,-161"/>
<polygon fill="#000000" stroke="#000000" points="1741.8167,-157.5001 1731.8167,-161 1741.8167,-164.5001 1741.8167,-157.5001"/>
</g>
<!-- LoginComponent -->
<g id="node9" class="node">
<title>LoginComponent</title>
<polygon fill="#ffffb3" stroke="#000000" points="2019.2758,-122 1904.7242,-122 1904.7242,-86 2019.2758,-86 2019.2758,-122"/>
<text text-anchor="middle" x="1962" y="-99.8" font-family="Times,serif" font-size="14.00" fill="#000000">LoginComponent</text>
</g>
<!-- LoginComponent&#45;&gt;AppModule -->
<g id="edge9" class="edge">
<title>LoginComponent&#45;&gt;AppModule</title>
<path fill="none" stroke="#000000" d="M1962,-122.2819C1962,-137.9478 1962,-158 1962,-158 1962,-158 1741.9039,-158 1741.9039,-158"/>
<polygon fill="#000000" stroke="#000000" points="1741.9039,-154.5001 1731.9039,-158 1741.9039,-161.5001 1741.9039,-154.5001"/>
</g>
<!-- NavbarComponent -->
<g id="node10" class="node">
<title>NavbarComponent</title>
<polygon fill="#ffffb3" stroke="#000000" points="1886.0297,-122 1763.9703,-122 1763.9703,-86 1886.0297,-86 1886.0297,-122"/>
<text text-anchor="middle" x="1825" y="-99.8" font-family="Times,serif" font-size="14.00" fill="#000000">NavbarComponent</text>
</g>
<!-- NavbarComponent&#45;&gt;AppModule -->
<g id="edge10" class="edge">
<title>NavbarComponent&#45;&gt;AppModule</title>
<path fill="none" stroke="#000000" d="M1825,-122.1243C1825,-136.7832 1825,-155 1825,-155 1825,-155 1741.9748,-155 1741.9748,-155"/>
<polygon fill="#000000" stroke="#000000" points="1741.9749,-151.5001 1731.9748,-155 1741.9748,-158.5001 1741.9749,-151.5001"/>
</g>
<!-- PAcsComponent -->
<g id="node11" class="node">
<title>PAcsComponent</title>
<polygon fill="#ffffb3" stroke="#000000" points="1745.3809,-122 1634.6191,-122 1634.6191,-86 1745.3809,-86 1745.3809,-122"/>
<text text-anchor="middle" x="1690" y="-99.8" font-family="Times,serif" font-size="14.00" fill="#000000">PAcsComponent</text>
</g>
<!-- PAcsComponent&#45;&gt;AppModule -->
<g id="edge11" class="edge">
<title>PAcsComponent&#45;&gt;AppModule</title>
<path fill="none" stroke="#000000" d="M1690,-122.1061C1690,-122.1061 1690,-140.991 1690,-140.991"/>
<polygon fill="#000000" stroke="#000000" points="1686.5001,-140.9909 1690,-150.991 1693.5001,-140.991 1686.5001,-140.9909"/>
</g>
<!-- PacsHomeComponent -->
<g id="node12" class="node">
<title>PacsHomeComponent</title>
<polygon fill="#ffffb3" stroke="#000000" points="1616.7007,-122 1475.2993,-122 1475.2993,-86 1616.7007,-86 1616.7007,-122"/>
<text text-anchor="middle" x="1546" y="-99.8" font-family="Times,serif" font-size="14.00" fill="#000000">PacsHomeComponent</text>
</g>
<!-- PacsHomeComponent&#45;&gt;AppModule -->
<g id="edge12" class="edge">
<title>PacsHomeComponent&#45;&gt;AppModule</title>
<path fill="none" stroke="#000000" d="M1546,-122.1243C1546,-136.7832 1546,-155 1546,-155 1546,-155 1637.9621,-155 1637.9621,-155"/>
<polygon fill="#000000" stroke="#000000" points="1637.9622,-158.5001 1647.9621,-155 1637.9621,-151.5001 1637.9622,-158.5001"/>
</g>
<!-- ProjectsLengthComponent -->
<g id="node13" class="node">
<title>ProjectsLengthComponent</title>
<polygon fill="#ffffb3" stroke="#000000" points="1457.0884,-122 1290.9116,-122 1290.9116,-86 1457.0884,-86 1457.0884,-122"/>
<text text-anchor="middle" x="1374" y="-99.8" font-family="Times,serif" font-size="14.00" fill="#000000">ProjectsLengthComponent</text>
</g>
<!-- ProjectsLengthComponent&#45;&gt;AppModule -->
<g id="edge13" class="edge">
<title>ProjectsLengthComponent&#45;&gt;AppModule</title>
<path fill="none" stroke="#000000" d="M1374,-122.2819C1374,-137.9478 1374,-158 1374,-158 1374,-158 1638.0376,-158 1638.0376,-158"/>
<polygon fill="#000000" stroke="#000000" points="1638.0377,-161.5001 1648.0376,-158 1638.0376,-154.5001 1638.0377,-161.5001"/>
</g>
<!-- RegisterComponent -->
<g id="node14" class="node">
<title>RegisterComponent</title>
<polygon fill="#ffffb3" stroke="#000000" points="1272.9846,-122 1145.0154,-122 1145.0154,-86 1272.9846,-86 1272.9846,-122"/>
<text text-anchor="middle" x="1209" y="-99.8" font-family="Times,serif" font-size="14.00" fill="#000000">RegisterComponent</text>
</g>
<!-- RegisterComponent&#45;&gt;AppModule -->
<g id="edge14" class="edge">
<title>RegisterComponent&#45;&gt;AppModule</title>
<path fill="none" stroke="#000000" d="M1209,-122.0352C1209,-138.7344 1209,-161 1209,-161 1209,-161 1638.1558,-161 1638.1558,-161"/>
<polygon fill="#000000" stroke="#000000" points="1638.1559,-164.5001 1648.1558,-161 1638.1558,-157.5001 1638.1559,-164.5001"/>
</g>
<!-- ReportsComponent -->
<g id="node15" class="node">
<title>ReportsComponent</title>
<polygon fill="#ffffb3" stroke="#000000" points="1127.3795,-122 1002.6205,-122 1002.6205,-86 1127.3795,-86 1127.3795,-122"/>
<text text-anchor="middle" x="1065" y="-99.8" font-family="Times,serif" font-size="14.00" fill="#000000">ReportsComponent</text>
</g>
<!-- ReportsComponent&#45;&gt;AppModule -->
<g id="edge15" class="edge">
<title>ReportsComponent&#45;&gt;AppModule</title>
<path fill="none" stroke="#000000" d="M1065,-122.302C1065,-140.2699 1065,-165 1065,-165 1065,-165 1638.0215,-165 1638.0215,-165"/>
<polygon fill="#000000" stroke="#000000" points="1638.0215,-168.5001 1648.0215,-165 1638.0215,-161.5001 1638.0215,-168.5001"/>
</g>
<!-- ScrumProjectsComponent -->
<g id="node16" class="node">
<title>ScrumProjectsComponent</title>
<polygon fill="#ffffb3" stroke="#000000" points="984.479,-122 821.521,-122 821.521,-86 984.479,-86 984.479,-122"/>
<text text-anchor="middle" x="903" y="-99.8" font-family="Times,serif" font-size="14.00" fill="#000000">ScrumProjectsComponent</text>
</g>
<!-- ScrumProjectsComponent&#45;&gt;AppModule -->
<g id="edge16" class="edge">
<title>ScrumProjectsComponent&#45;&gt;AppModule</title>
<path fill="none" stroke="#000000" d="M903,-122.1686C903,-141.0898 903,-168 903,-168 903,-168 1638.2431,-168 1638.2431,-168"/>
<polygon fill="#000000" stroke="#000000" points="1638.2432,-171.5001 1648.2431,-168 1638.2431,-164.5001 1638.2432,-171.5001"/>
</g>
<!-- TasksComponent -->
<g id="node17" class="node">
<title>TasksComponent</title>
<polygon fill="#ffffb3" stroke="#000000" points="803.9888,-122 690.0112,-122 690.0112,-86 803.9888,-86 803.9888,-122"/>
<text text-anchor="middle" x="747" y="-99.8" font-family="Times,serif" font-size="14.00" fill="#000000">TasksComponent</text>
</g>
<!-- TasksComponent&#45;&gt;AppModule -->
<g id="edge17" class="edge">
<title>TasksComponent&#45;&gt;AppModule</title>
<path fill="none" stroke="#000000" d="M747,-122.308C747,-142.1455 747,-171 747,-171 747,-171 1638.2637,-171 1638.2637,-171"/>
<polygon fill="#000000" stroke="#000000" points="1638.2637,-174.5001 1648.2637,-171 1638.2637,-167.5001 1638.2637,-174.5001"/>
</g>
<!-- TasksDoneComponent -->
<g id="node18" class="node">
<title>TasksDoneComponent</title>
<polygon fill="#ffffb3" stroke="#000000" points="672.3103,-122 527.6897,-122 527.6897,-86 672.3103,-86 672.3103,-122"/>
<text text-anchor="middle" x="600" y="-99.8" font-family="Times,serif" font-size="14.00" fill="#000000">TasksDoneComponent</text>
</g>
<!-- TasksDoneComponent&#45;&gt;AppModule -->
<g id="edge18" class="edge">
<title>TasksDoneComponent&#45;&gt;AppModule</title>
<path fill="none" stroke="#000000" d="M600,-122.0267C600,-142.7672 600,-174 600,-174 600,-174 1638.2707,-174 1638.2707,-174"/>
<polygon fill="#000000" stroke="#000000" points="1638.2708,-177.5001 1648.2707,-174 1638.2707,-170.5001 1638.2708,-177.5001"/>
</g>
<!-- TasksPerMonthComponent -->
<g id="node19" class="node">
<title>TasksPerMonthComponent</title>
<polygon fill="#ffffb3" stroke="#000000" points="509.9818,-122 340.0182,-122 340.0182,-86 509.9818,-86 509.9818,-122"/>
<text text-anchor="middle" x="425" y="-99.8" font-family="Times,serif" font-size="14.00" fill="#000000">TasksPerMonthComponent</text>
</g>
<!-- TasksPerMonthComponent&#45;&gt;AppModule -->
<g id="edge19" class="edge">
<title>TasksPerMonthComponent&#45;&gt;AppModule</title>
<path fill="none" stroke="#000000" d="M425,-122.2921C425,-144.2057 425,-178 425,-178 425,-178 1638.2715,-178 1638.2715,-178"/>
<polygon fill="#000000" stroke="#000000" points="1638.2715,-181.5001 1648.2715,-178 1638.2715,-174.5001 1638.2715,-181.5001"/>
</g>
<!-- TasksToDoComponent -->
<g id="node20" class="node">
<title>TasksToDoComponent</title>
<polygon fill="#ffffb3" stroke="#000000" points="322.1484,-122 175.8516,-122 175.8516,-86 322.1484,-86 322.1484,-122"/>
<text text-anchor="middle" x="249" y="-99.8" font-family="Times,serif" font-size="14.00" fill="#000000">TasksToDoComponent</text>
</g>
<!-- TasksToDoComponent&#45;&gt;AppModule -->
<g id="edge20" class="edge">
<title>TasksToDoComponent&#45;&gt;AppModule</title>
<path fill="none" stroke="#000000" d="M249,-122.2479C249,-145.0179 249,-181 249,-181 249,-181 1638.0417,-181 1638.0417,-181"/>
<polygon fill="#000000" stroke="#000000" points="1638.0417,-184.5001 1648.0417,-181 1638.0416,-177.5001 1638.0417,-184.5001"/>
</g>
<!-- AppComponent  -->
<g id="node23" class="node">
<title>AppComponent </title>
<polygon fill="#80b1d3" stroke="#000000" points="1744.439,-252 1635.561,-252 1635.561,-216 1744.439,-216 1744.439,-252"/>
<text text-anchor="middle" x="1690" y="-229.8" font-family="Times,serif" font-size="14.00" fill="#000000">AppComponent </text>
</g>
<!-- AppModule&#45;&gt;AppComponent  -->
<g id="edge22" class="edge">
<title>AppModule&#45;&gt;AppComponent </title>
<path fill="none" stroke="#000000" stroke-dasharray="1,5" d="M1690,-187.1061C1690,-187.1061 1690,-205.991 1690,-205.991"/>
<polygon fill="#000000" stroke="#000000" points="1686.5001,-205.9909 1690,-215.991 1693.5001,-205.991 1686.5001,-205.9909"/>
</g>
<!-- AppRoutingModule -->
<g id="node22" class="node">
<title>AppRoutingModule</title>
<polygon fill="#8dd3c7" stroke="#000000" points="152.2744,-122 149.2744,-126 128.2744,-126 125.2744,-122 23.7256,-122 23.7256,-86 152.2744,-86 152.2744,-122"/>
<text text-anchor="middle" x="88" y="-99.8" font-family="Times,serif" font-size="14.00" fill="#000000">AppRoutingModule</text>
</g>
<!-- AppRoutingModule&#45;&gt;AppModule -->
<g id="edge21" class="edge">
<title>AppRoutingModule&#45;&gt;AppModule</title>
<path fill="none" stroke="#000000" d="M88,-122.1532C88,-145.7566 88,-184 88,-184 88,-184 1637.9738,-184 1637.9738,-184"/>
<polygon fill="#000000" stroke="#000000" points="1637.9739,-187.5001 1647.9738,-184 1637.9738,-180.5001 1637.9739,-187.5001"/>
</g>
</g>
</svg>
